<?xml version="1.0" encoding="UTF-8" standalone="no"?>
<svg
   viewBox="0 0 448 512"
   version="1.1"
   id="svg1"
   sodipodi:docname="fa-square-vsc.svg"
   xml:space="preserve"
   inkscape:version="1.3 (0e150ed6c4, 2023-07-21)"
   xmlns:inkscape="http://www.inkscape.org/namespaces/inkscape"
   xmlns:sodipodi="http://sodipodi.sourceforge.net/DTD/sodipodi-0.dtd"
   xmlns="http://www.w3.org/2000/svg"
   xmlns:svg="http://www.w3.org/2000/svg"><defs
     id="defs1" /><sodipodi:namedview
     id="namedview1"
     pagecolor="#ffffff"
     bordercolor="#999999"
     borderopacity="1"
     inkscape:showpageshadow="2"
     inkscape:pageopacity="0"
     inkscape:pagecheckerboard="0"
     inkscape:deskcolor="#d1d1d1"
     inkscape:zoom="0.75922196"
     inkscape:cx="217.32775"
     inkscape:cy="298.33173"
     inkscape:window-width="1920"
     inkscape:window-height="1059"
     inkscape:window-x="0"
     inkscape:window-y="0"
     inkscape:window-maximized="1"
     inkscape:current-layer="svg1" /><!--! Font Awesome Pro 6.4.2 by @fontawesome - https://fontawesome.com License - https://fontawesome.com/license (Commercial License) Copyright 2023 Fonticons, Inc. --><path
     id="path1"
     d="M 64,50 C 28.700175,50 0,78.700175 0,114 v 320 c 0,35.2998 28.700175,64 64,64 h 320 c 35.2998,0 64,-28.7002 64,-64 V 114 C 448,78.700175 419.2998,50 384,50 Z m 173.21484,65.69336 0.87696,5.8418 c 1.09725,7.31699 -1.21086,16.8571 -5.41407,22.375 -1.75274,2.30097 -6.40141,6.31609 -10.33007,8.92382 -7.37264,4.89367 -16.85292,14.65184 -19.23438,19.79883 -2.42522,5.24157 -3.54644,3.12104 -3.44531,-6.51562 0.0547,-5.19674 0.78742,-11.31732 1.62891,-13.59961 2.87978,-7.811 9.57834,-15.53508 18.65624,-21.51563 4.98596,-3.28477 10.90996,-8.07337 13.16407,-10.64062 z M 59.458984,130.83984 h 23.677735 l 10.583984,39.5 c 0.363715,1.45488 0.801343,3.34602 1.310547,5.67383 0.509211,2.32781 0.981508,4.65657 1.417969,6.98438 0.509204,2.32778 0.800301,4.21895 0.873047,5.67383 0.145481,-1.45488 0.399949,-3.31135 0.763672,-5.56641 0.436457,-2.3278 0.872128,-4.61798 1.308593,-6.87305 0.509207,-2.3278 0.983459,-4.21894 1.419919,-5.67383 l 10.80274,-39.71875 h 23.56836 l -25.53321,77.90821 H 84.882812 Z m 203.890626,13.46094 c 2.73255,0.87397 12.81118,20.40483 18.1582,35.5586 3.59006,10.17445 14.74783,53.54575 22.19727,86.28124 1.8534,8.14437 5.02652,16.31007 10.38086,26.7168 4.24115,8.24308 9.01065,19.38776 10.59961,24.76367 2.43239,8.22945 3.95025,10.83525 9.59765,16.4961 7.4312,7.44895 12.41576,9.16787 22.30078,7.68554 7.05127,-1.05738 17.08912,-7.54401 21.28516,-13.75585 2.61718,-3.87445 3.0042,-5.79442 2.57617,-12.74219 -0.60614,-9.83876 -2.97825,-12.73194 -16.18554,-19.74219 -11.09216,-5.88757 -16.50214,-12.35379 -16.65821,-19.91211 -0.14906,-7.22184 2.5079,-7.80683 10.24024,-2.25391 5.06521,3.63755 6.46688,4.05834 10.76758,3.22852 2.71944,-0.52471 6.56572,-1.26098 8.54687,-1.63477 1.98115,-0.37387 5.35375,0.0469 7.49414,0.9336 l 3.89063,1.61133 v 39.10351 39.10156 l -4.23633,-0.85937 c -24.69886,-5.00976 -34.42279,-3.88194 -43.32617,5.02148 -5.73063,5.73057 -10.02133,15.05118 -11.56446,25.12696 l -0.84179,5.50586 12.06445,5.83398 c 13.58338,6.5684 26.62447,10.50278 39.31055,11.86133 l 8.59375,0.92187 v 11.57618 11.57812 l -3.58399,-0.0703 c -1.97117,-0.0367 -6.80961,-1.11214 -10.75195,-2.38672 -13.71914,-4.43552 -21.79523,-9.66778 -34.9082,-22.61523 -12.08911,-11.93655 -14.20043,-17.25468 -15.91211,-40.08985 -1.68079,-22.42335 -3.69563,-29.0346 -14.66407,-48.08984 -10.31973,-17.92841 -15.51897,-33.84242 -22.60937,-69.20313 -7.149,-35.65298 -16.36902,-77.3225 -20.61719,-93.18359 -1.72783,-6.4511 -2.89298,-11.97909 -2.58984,-12.28516 0.11329,-0.11439 0.26314,-0.14029 0.44531,-0.082 z M 245.24219,149.5 c 2.29366,0 7.60256,6.08872 8.52929,9.78125 2.21927,8.84228 -7.19997,23.43007 -24.74804,38.32813 -18.255,15.49825 -27.23724,29.52074 -27.41016,42.79101 -0.0489,3.76245 -0.41878,6.84111 -0.82226,6.8418 -0.4036,7.3e-4 -2.24363,-1.61086 -4.0879,-3.58203 -11.55983,-12.35538 -9.89131,-28.71478 4.41797,-43.33204 3.15758,-3.22554 12.0535,-11.66054 19.76953,-18.74414 14.55385,-13.36096 22.98829,-24.05187 22.98829,-29.13476 0,-1.62235 0.61392,-2.94922 1.36328,-2.94922 z m 65.61133,15.7168 c 7.70604,-0.33714 17.4551,0.42921 22.00781,1.98047 7.38719,2.51706 14.59332,10.10769 16.57226,17.45703 2.14923,7.98153 1.22649,21.40326 -1.50781,21.92382 -1.27629,0.24313 -2.51899,-0.69049 -3.01953,-2.26757 -0.46794,-1.47435 -0.50493,-3.77114 -0.082,-5.10352 1.11978,-3.52807 -1.85296,-5.32965 -11.21484,-6.79687 -15.72715,-2.46473 -18.55026,-4.32606 -28.79688,-18.98438 l -4.68359,-6.69922 3.96679,-0.79297 c 1.84656,-0.36931 4.18913,-0.60441 6.75782,-0.71679 z m 17.4121,3.87304 c -5.33983,0.0521 -11.40429,5.14396 -11.40429,9.57618 0,7.44181 13.85951,11.71074 19.54883,6.02148 1.43357,-1.43358 2.60742,-3.85181 2.60742,-5.375 0,-2.94213 0.69721,-2.93156 -11.5332,-0.17383 -2.47122,0.55717 -2.97228,0.21572 -2.59571,-1.76758 0.29608,-1.55868 1.77283,-2.60754 4.03906,-2.86914 2.52086,-0.29078 3.57422,-1.15557 3.57422,-2.93359 0,-1.98261 -0.90391,-2.51093 -4.23633,-2.47852 z m -71.08398,23.47266 c 0.19053,-0.0228 0.54523,0.55877 1.22266,1.72461 0.85771,1.47622 1.19313,7.10687 0.85351,14.33594 -0.60972,12.9787 -1.66635,15.78148 -11.97851,31.78125 -7.54589,11.70774 -11.75982,20.23992 -16.05078,32.5039 -3.45518,9.87541 -3.56098,11.01953 -3.59961,38.84766 -0.0367,26.04207 -0.27912,29.14203 -2.64649,33.8125 -3.96947,7.83088 -5.86523,7.4767 -5.86523,-1.0957 0,-5.0952 -1.6212,-11.99809 -5.45703,-23.24024 -4.96789,-14.55998 -5.45663,-17.16061 -5.47071,-29.02539 -0.0285,-22.76251 6.49462,-38.16526 27.3125,-64.50195 14.65523,-18.54028 21.35155,-28.92438 21.4375,-33.24219 0.0248,-1.25002 0.0517,-1.87755 0.24219,-1.90039 z m -156.64062,40.8457 c 5.09205,0 9.6744,0.58219 13.74804,1.7461 4.07366,1.09116 7.7114,2.36543 10.91211,3.82031 l -6.4375,16.25781 c -3.3462,-1.52762 -6.65621,-2.72863 -9.92969,-3.60156 -3.20071,-0.94567 -6.18299,-1.41797 -8.947261,-1.41797 -2.691522,0 -4.692567,0.4723 -6.001953,1.41797 -1.236642,0.94567 -1.855469,2.14669 -1.855469,3.60156 0,1.23665 0.474256,2.32777 1.419922,3.27344 0.945673,0.94567 2.509091,2.00016 4.691406,3.16406 2.255055,1.09116 5.310585,2.51001 9.166015,4.25586 3.78269,1.67311 6.9828,3.52765 9.60156,5.56445 2.69153,1.96409 4.7292,4.32753 6.11133,7.0918 1.45488,2.69153 2.18164,6.07478 2.18164,10.14844 0,4.21912 -1.09112,8.22122 -3.27344,12.00391 -2.10955,3.78266 -5.41957,6.87288 -9.92968,9.27343 -4.43738,2.32781 -10.22072,3.49219 -17.349612,3.49219 -3.564449,0 -6.691297,-0.18121 -9.382813,-0.54492 -2.618776,-0.29098 -5.092119,-0.79991 -7.419922,-1.52735 -2.327802,-0.72742 -4.729834,-1.67399 -7.203125,-2.83789 v -18.76757 c 4.219141,2.10955 8.475696,3.74625 12.767578,4.91015 4.291883,1.09116 8.184079,1.63672 11.675782,1.63672 3.127985,0 5.418192,-0.54556 6.873042,-1.63672 1.45489,-1.09116 2.1836,-2.47337 2.1836,-4.14648 0,-2.03683 -1.09112,-3.67351 -3.27344,-4.91016 -2.109566,-1.30939 -5.710669,-3.09259 -10.802734,-5.34766 -3.855424,-1.81857 -7.202054,-3.70975 -10.039062,-5.67382 -2.837007,-2.03683 -5.019256,-4.51019 -6.546875,-7.41992 -1.527621,-2.90976 -2.291016,-6.58215 -2.291016,-11.01954 0,-5.01931 1.235695,-9.20262 3.708985,-12.54882 2.473287,-3.41897 5.893184,-5.96556 10.257812,-7.63868 4.437371,-1.74583 9.565248,-2.61914 15.38477,-2.61914 z m 163.61523,7.97071 2.76953,5.24609 c 6.57931,12.45206 7.08616,32.14153 1.49805,58.29883 -1.98083,9.27207 -2.85817,17.92522 -2.87305,28.33594 -0.0326,22.81092 4.25696,34.75147 18.66016,51.94335 12.55618,14.98731 19.2864,27.47288 18.0957,33.57227 -0.40034,2.05132 -0.56677,2.04498 -2.33008,-0.082 -1.0441,-1.25952 -7.49535,-6.2689 -14.33594,-11.13086 -17.20328,-12.22716 -24.45432,-18.91521 -30.2832,-27.93359 -7.38851,-11.43151 -10.17383,-21.8161 -10.17383,-37.92188 0,-15.77471 2.00742,-27.14903 8.32618,-47.17578 6.95318,-22.03766 8.78337,-29.92788 9.75781,-42.07422 z m -158.92383,95.68945 c 3.78269,0 7.74814,0.43762 11.89453,1.31055 4.14641,0.87293 8.21979,2.25515 12.22071,4.14648 l -6.4375,16.58594 c -2.83702,-1.38213 -5.71134,-2.5099 -8.6211,-3.38281 -2.90974,-0.94568 -5.99996,-1.41993 -9.27344,-1.41993 -4.94658,0 -8.838769,2.03768 -11.675776,6.11133 -2.837007,4.07366 -4.25586,9.74709 -4.25586,17.02149 0,7.34713 1.418853,12.94926 4.25586,16.80468 2.837007,3.78269 7.128236,5.67383 12.874996,5.67383 3.41897,0 6.72895,-0.47229 9.92969,-1.41797 3.27347,-0.94566 6.54685,-2.11006 9.82031,-3.49218 v 17.78515 c -3.41895,1.52762 -6.94678,2.61874 -10.58398,3.27344 -3.56445,0.72744 -7.38338,1.0918 -11.45703,1.0918 -8.438294,0 -15.349378,-1.67331 -20.732424,-5.01954 -5.383045,-3.3462 -9.346542,-8.0018 -11.892578,-13.96679 -2.546034,-6.03775 -3.820312,-12.98546 -3.820312,-20.8418 0,-7.85633 1.455479,-14.8021 4.365234,-20.83984 2.909755,-6.03775 7.164348,-10.76659 12.765625,-14.18555 5.674025,-3.49171 12.54848,-5.23828 20.623045,-5.23828 z"
     style="fill:#646464;fill-opacity:1" /><g
     id="text2"
     style="font-size:99.4373px;line-height:0.95;text-align:center;text-anchor:middle;stroke-width:2.48593"
     aria-label="V&#10;S&#10;C"
     transform="matrix(1.0973349,0,0,1.0973349,-24.33703,-13.927662)" /></svg>
