<?xml version="1.0" encoding="UTF-8" standalone="no"?>
<svg
   viewBox="0 0 448 512"
   version="1.1"
   id="svg1"
   sodipodi:docname="fa-square-vsc.svg"
   xml:space="preserve"
   inkscape:version="1.3 (0e150ed6c4, 2023-07-21)"
   xmlns:inkscape="http://www.inkscape.org/namespaces/inkscape"
   xmlns:sodipodi="http://sodipodi.sourceforge.net/DTD/sodipodi-0.dtd"
   xmlns:xlink="http://www.w3.org/1999/xlink"
   xmlns="http://www.w3.org/2000/svg"
   xmlns:svg="http://www.w3.org/2000/svg"><defs
     id="defs1"><rect
       id="SVGID_1_"
       x="23.34"
       y="1.5"
       width="114.33"
       height="178" /><rect
       id="SVGID_00000124873904849463895560000005944808224944904586_"
       x="-9.92"
       y="-34.1"
       width="221.49"
       height="247.05" /></defs><sodipodi:namedview
     id="namedview1"
     pagecolor="#ffffff"
     bordercolor="#999999"
     borderopacity="1"
     inkscape:showpageshadow="2"
     inkscape:pageopacity="0"
     inkscape:pagecheckerboard="0"
     inkscape:deskcolor="#d1d1d1"
     inkscape:zoom="0.75922196"
     inkscape:cx="217.32775"
     inkscape:cy="297.01459"
     inkscape:window-width="1920"
     inkscape:window-height="1059"
     inkscape:window-x="0"
     inkscape:window-y="0"
     inkscape:window-maximized="1"
     inkscape:current-layer="svg1" /><!--! Font Awesome Pro 6.4.2 by @fontawesome - https://fontawesome.com License - https://fontawesome.com/license (Commercial License) Copyright 2023 Fonticons, Inc. --><path
     id="path1"
     style="fill:#646464;fill-opacity:1"
     d="M 64 50 C 28.700385 50 0 78.700385 0 114 L 0 434 C 0 469.29956 28.700385 498 64 498 L 384 498 C 419.29956 498 448 469.29956 448 434 L 448 114 C 448 78.700385 419.29956 50 384 50 L 64 50 z M 160.82422 78.769531 C 160.82422 78.769531 172.48797 108.154 145.73438 124.98047 C 132.15901 133.51779 122.92608 143.54438 116.42383 156.72266 C 114.56248 149.69918 113.99158 143.41992 114.38867 137.83594 C 116.27484 109.9159 141.61483 98.624473 147.94336 94.455078 C 147.94336 94.455078 159.33514 86.636779 160.82422 78.769531 z M 191.01953 114.55859 C 192.61496 114.54774 199.86908 116.77834 213.81055 153.17383 C 217.73177 163.54772 223.14159 180.54803 225.72266 191.93945 C 228.55189 204.17469 232.0757 217.52583 235.52539 231.00195 C 238.90063 244.03136 241.1589 257.70715 244.23633 270.66211 C 249.27436 291.9807 265.00992 308.01261 269.50195 329.80273 C 271.98375 342.11242 279.15616 349.06177 287.02344 354.44727 C 303.70108 365.83868 332.7618 350.77369 336.6582 334.19531 C 337.17938 331.88724 337.45268 326.92479 337.17969 324.76562 C 336.0877 315.28518 332.68718 309.23005 324.125 305.23438 C 322.38774 304.4402 315.11713 301.2368 309.35938 297.78711 C 302.88189 293.89069 287.96639 274.73199 298.61328 269.29688 C 304.19732 266.51727 310.94791 278.1577 318.16992 278.72852 C 326.68247 279.42341 333.03535 268.99858 346.58594 279.34766 L 346.71094 374.79883 C 337.25531 374.79883 326.48275 369.61182 308.63867 370.90234 C 292.6063 372.09361 283.52309 383.16091 278.68359 395.29688 C 276.17699 401.55099 273.74446 415.64929 274.26562 416.61719 C 275.10944 418.80117 309.83093 439.44922 346.68555 439.44922 L 346.68555 469.23047 C 309.60757 469.23047 274.66403 429.94341 270.3457 417.75781 C 268.6829 413.14169 267.5663 402.71836 267.39258 400.16211 C 267.11958 391.4262 265.8029 381.87041 265.13281 370.33008 C 263.96637 350.37647 246.24715 328.23885 239.52148 313.62109 C 237.23824 308.6327 233.73876 297.31689 231.72852 292.00586 C 226.11966 277.21438 218.45066 232.29245 217.58203 228.12305 C 196.4868 126.14622 190.67969 114.60742 190.67969 114.60742 C 190.67969 114.60742 190.79161 114.56014 191.01953 114.55859 z M 168.66602 121.80469 C 168.66602 121.80469 176.23569 121.4073 180.35547 129.74609 C 181.79491 132.57534 192.31736 147.96225 149.2832 183.47656 C 106.34836 218.94128 119.75 244.30469 119.75 244.30469 C 119.75 244.30469 73.911662 218.81674 126.69922 174.74023 C 179.48678 130.7134 168.66602 121.80469 168.66602 121.80469 z M 259.29883 140.4043 C 305.84066 140.02224 303.47066 181.60003 299.25781 193.47852 C 293.40078 195.14132 288.83518 184.94071 294.64258 181.86328 C 291.66442 174.24417 278.21241 176.25451 265.58008 172.55664 C 248.38124 167.5186 243.64127 144.3136 236.2207 143.3457 C 245.00315 141.36957 252.64999 140.45888 259.29883 140.4043 z M 272.99609 145.81055 C 271.97206 145.8104 270.97249 145.92932 270.09766 146.19922 C 266.84651 147.24157 264.78564 150.3697 262.77539 152.25586 C 260.88923 153.44712 259.99545 152.10673 259.375 153.76953 C 254.31214 170.67055 288.21482 176.35418 285.33594 155.73047 C 279.52854 155.50711 268.40914 164.19201 268.11133 155.75391 C 268.11133 150.61659 274.98547 153.44681 277.31836 151.73438 C 278.41035 150.76648 279.3041 147.01933 277.83984 146.67188 C 276.47486 146.14449 274.70281 145.81079 272.99609 145.81055 z M 186.53516 171.26562 C 189.33955 181.11835 194.62612 203.08207 180.0332 224.32617 C 167.74838 242.12058 153.37878 267.61004 150.32617 291.33594 C 148.71301 304.04266 149.43289 316.12852 150.07812 326.77539 C 150.89712 339.87923 152.55958 360.87585 141.51562 369.88477 C 132.60601 375.41914 145.56076 365.36629 134.14453 337.99219 C 127.66708 322.43137 121.83449 305.90357 126.42578 279.29883 C 128.08858 269.74395 134.56537 253.21584 139.85156 243.61133 C 150.67216 224.05485 185.19499 193.5769 186.53516 171.26562 z M 193.50977 234.60156 C 193.50977 234.60156 214.38085 250.48461 199.73828 314.98633 C 189.61258 359.53444 201.22752 390.70731 214.13281 404.85352 C 249.44869 443.59424 240.86133 455.67969 240.86133 455.67969 C 218.69894 427.75956 140.84472 416.49271 181.5957 297.68945 C 197.18135 252.27272 193.50977 234.60156 193.50977 234.60156 z " /><g
     id="text2"
     style="font-size:99.4373px;line-height:0.95;text-align:center;text-anchor:middle;stroke-width:2.48593"
     aria-label="V&#10;S&#10;C"
     transform="matrix(1.0973349,0,0,1.0973349,-24.33703,-13.927662)" /><style
     type="text/css"
     id="style1">&#10;	.st0{display:none;clip-path:url(#SVGID_00000127728511255509684450000003745646610807044031_);fill:#F6F6F3;}&#10;	.st1{clip-path:url(#SVGID_00000127728511255509684450000003745646610807044031_);}&#10;	.st2{clip-path:url(#SVGID_00000112629206045347629440000014616877476295883171_);fill:#D96422;}&#10;</style><g
     id="g9"
     transform="matrix(2.4817968,0,0,2.4817968,28.245993,54.869755)">&#10;	<g
   id="g8">&#10;		<defs
   id="defs1-6">&#10;			<rect
   id="rect1"
   x="23.34"
   y="1.5"
   width="114.33"
   height="178" />&#10;		</defs>&#10;		<clipPath
   id="SVGID_00000011740441924514368770000000088942360084765628_">&#10;			<use
   xlink:href="#SVGID_1_"
   style="overflow:visible"
   id="use1" />&#10;		</clipPath>&#10;		<path
   id="polygon1"
   clip-path="url(#SVGID_00000011740441924514368770000000088942360084765628_)"
   style="display:none;fill:#f6f6f3"
   d="M -9.92,-34.06 V 212.95 H 211.56 L 127.48,-34.1 Z" />&#10;		<g
   clip-path="url(#SVGID_00000011740441924514368770000000088942360084765628_)"
   id="g7">&#10;			<defs
   id="defs2">&#10;				<rect
   id="rect2"
   x="-9.9200001"
   y="-34.099998"
   width="221.49001"
   height="247.05" />&#10;			</defs>&#10;			<clipPath
   id="SVGID_00000109709057322549811550000002405053860950105764_">&#10;				<use
   xlink:href="#SVGID_00000124873904849463895560000005944808224944904586_"
   style="overflow:visible"
   id="use2" />&#10;			</clipPath>&#10;			&#10;			&#10;			&#10;			&#10;			&#10;			&#10;		</g>&#10;	</g>&#10;</g></svg>
